# xmcd
#
# Track frame offsets: 
#        150
#        18476
#        39443
#        48947
#        76001
#        86488
#        101857
#        124881
#        139886
#        163304
#        182161
#        196341
#
# Disc length: 2933 seconds
#
# Revision: 2
# Processed by: cddbd v1.5.2PL0 Copyright (c) Steve Scherf et al.
# Submitted via: ExactAudioCopy v1.0b1
#
DISCID=9e0b730c
DTITLE=Johnnie Johnson and The Kentucky Headhunters - That'll Work
DYEAR=1993
DGENRE=Country
TTITLE0=That'll Work
TTITLE1=Sunday Blues
TTITLE2=Johnnie's Breakdown
TTITLE3=I'm Not Runnin'
TTITLE4=Bummed About Love
TTITLE5=Stumblin'
TTITLE6=Back To Memphis
TTITLE7=The Feel
TTITLE8=I Kinow you Can
TTITLE9=She's Got To Have It
TTITLE10=Derby Day Special
TTITLE11=Tell Me Baby
EXTD=
EXTT0=
EXTT1=
EXTT2=
EXTT3=
EXTT4=
EXTT5=
EXTT6=
EXTT7=
EXTT8=
EXTT9=
EXTT10=
EXTT11=
PLAYORDER=
